<svg width="171" height="116" viewBox="0 0 171 116" fill="none" xmlns="http://www.w3.org/2000/svg">
<rect width="107" height="52" fill="black" fill-opacity="0" transform="translate(32 28)"/>
<g filter="url(#filter0_d)">
<rect x="32" y="28" width="107" height="52" rx="4" fill="white"/>
</g>
<rect width="62" height="22" fill="black" fill-opacity="0" transform="translate(54 43)"/>
<rect width="62" height="22" fill="black" fill-opacity="0" transform="translate(54 43)"/>
<path d="M74.4375 48.5781H77.9922C79.612 48.5781 80.7865 48.8099 81.5156 49.2734C82.25 49.7318 82.6172 50.4635 82.6172 51.4688C82.6172 52.151 82.4557 52.7109 82.1328 53.1484C81.8151 53.5859 81.3906 53.849 80.8594 53.9375V54.0156C81.5833 54.1771 82.1042 54.4792 82.4219 54.9219C82.7448 55.3646 82.9062 55.9531 82.9062 56.6875C82.9062 57.7292 82.5286 58.5417 81.7734 59.125C81.0234 59.7083 80.0026 60 78.7109 60H74.4375V48.5781ZM76.8594 53.1016H78.2656C78.9219 53.1016 79.3958 53 79.6875 52.7969C79.9844 52.5938 80.1328 52.2578 80.1328 51.7891C80.1328 51.3516 79.9714 51.0391 79.6484 50.8516C79.3307 50.6589 78.8255 50.5625 78.1328 50.5625H76.8594V53.1016ZM76.8594 55.0234V58H78.4375C79.1042 58 79.5964 57.8724 79.9141 57.6172C80.2318 57.362 80.3906 56.9714 80.3906 56.4453C80.3906 55.4974 79.7135 55.0234 78.3594 55.0234H76.8594ZM92.0234 60L91.1953 57.2812H87.0312L86.2031 60H83.5938L87.625 48.5312H90.5859L94.6328 60H92.0234ZM90.6172 55.25C89.8516 52.7865 89.4193 51.3932 89.3203 51.0703C89.2266 50.7474 89.1589 50.4922 89.1172 50.3047C88.9453 50.9714 88.4531 52.6198 87.6406 55.25H90.6172ZM100.773 50.4297C99.862 50.4297 99.1562 50.7734 98.6562 51.4609C98.1562 52.1432 97.9062 53.0964 97.9062 54.3203C97.9062 56.8672 98.862 58.1406 100.773 58.1406C101.576 58.1406 102.547 57.9401 103.688 57.5391V59.5703C102.75 59.9609 101.703 60.1562 100.547 60.1562C98.8854 60.1562 97.6146 59.6536 96.7344 58.6484C95.8542 57.638 95.4141 56.1901 95.4141 54.3047C95.4141 53.1172 95.6302 52.0781 96.0625 51.1875C96.4948 50.2917 97.1146 49.6068 97.9219 49.1328C98.7344 48.6536 99.6849 48.4141 100.773 48.4141C101.883 48.4141 102.997 48.6823 104.117 49.2188L103.336 51.1875C102.909 50.9844 102.479 50.8073 102.047 50.6562C101.615 50.5052 101.19 50.4297 100.773 50.4297ZM115.312 60H112.562L109.57 55.1875L108.547 55.9219V60H106.125V48.5781H108.547V53.8047L109.5 52.4609L112.594 48.5781H115.281L111.297 53.6328L115.312 60Z" fill="#AAAAAA"/>
<path d="M59 49L54 54L59 59" stroke="#AAAAAA" stroke-width="2" stroke-linecap="round" stroke-linejoin="round"/>
<defs>
<filter id="filter0_d" x="0" y="0" width="171" height="116" filterUnits="userSpaceOnUse" color-interpolation-filters="sRGB">
<feFlood flood-opacity="0" result="BackgroundImageFix"/>
<feColorMatrix in="SourceAlpha" type="matrix" values="0 0 0 0 0 0 0 0 0 0 0 0 0 0 0 0 0 0 255 0"/>
<feOffset dy="4"/>
<feGaussianBlur stdDeviation="16"/>
<feColorMatrix type="matrix" values="0 0 0 0 0 0 0 0 0 0 0 0 0 0 0 0 0 0 0.03 0"/>
<feBlend mode="normal" in2="BackgroundImageFix" result="effect1_dropShadow"/>
<feBlend mode="normal" in="SourceGraphic" in2="effect1_dropShadow" result="shape"/>
</filter>
</defs>
</svg>
