<svg width="375" height="988" viewBox="0 0 375 988" fill="none" xmlns="http://www.w3.org/2000/svg">
<g opacity="0.5">
<path fill-rule="evenodd" clip-rule="evenodd" d="M728.338 422.874L851.465 33.6428C854.518 23.9927 844.967 14.9249 833.378 12.2904L783.166 0.875083C771.577 -1.7594 757.954 2.03979 744.332 5.83898L744.402 5.8416L620.555 398.678L620.548 398.7L620.445 398.562C620.358 398.47 620.273 398.379 620.186 398.287L620.203 398.234L512.897 253.211L490.136 220.452L452.136 170.435C443.6 158.151 447.672 145.284 461.295 141.484L524.735 111.082L554.015 97.0492L569.672 86.8163L744.318 5.88022M728.338 422.874C725.285 432.524 715.524 437.202 703.936 434.567ZM703.936 434.567L661.449 424.908ZM661.449 424.908C646.153 421.431 632.85 411.647 620.555 398.678ZM54.0513 237.361L0.251365 402.619C-1.08437 406.716 3.09897 410.566 8.16917 411.684L30.1401 416.53C35.2103 417.648 41.1702 416.034 47.13 414.421L123.539 380.038L130.389 375.693L143.198 369.735L170.95 356.825C176.909 355.212 178.689 349.749 174.951 344.533L158.315 323.299L148.35 309.39L101.376 247.797L101.29 247.71L101.225 247.623C95.84 242.114 90.0142 237.973 83.3177 236.496L64.7243 232.395C59.6541 231.277 55.3844 233.263 54.0513 237.361Z" transform="matrix(0.684807 -0.183493 0.222313 0.834384 -116.572 190.796)" fill="url(#paint0_linear)" fill-opacity="0.75"/>
</g>
<defs>
<linearGradient id="paint0_linear" x2="1" gradientUnits="userSpaceOnUse" gradientTransform="matrix(469.722 -305.415 165.259 40.9901 163.596 317.58)">
<stop stop-color="#78BEFF" stop-opacity="0.2"/>
<stop offset="1" stop-color="#78BEFF" stop-opacity="0.01"/>
</linearGradient>
</defs>
</svg>
