<svg width="375" height="483" viewBox="0 0 375 483" fill="none" xmlns="http://www.w3.org/2000/svg">
<path fill-rule="evenodd" clip-rule="evenodd" d="M-0.00194804 3.03384C-0.00534099 1.16088 1.68938 -0.257228 3.5324 0.0763782L186.951 33.2772C187.305 33.3412 187.667 33.3412 188.02 33.2772L371.444 0.075198C373.284 -0.258016 374.978 1.15644 374.978 3.02719L374.982 289.94L374.999 297.656C374.999 297.661 374.996 297.665 374.991 297.666C374.985 297.667 374.982 297.671 374.982 297.676V479.999C374.982 481.656 373.639 482.999 371.982 482.999L3.03252 483C1.36959 483 0.0239296 481.647 0.0325423 479.984L0.978628 297.317C0.979314 297.184 0.884735 297.071 0.754408 297.047C0.624788 297.024 0.530422 296.911 0.530184 296.779L-0.00194804 3.03384Z" fill="#66AFF8"/>
</svg>
