<svg width="375" height="464" viewBox="0 0 375 464" fill="none" xmlns="http://www.w3.org/2000/svg">
<path fill-rule="evenodd" clip-rule="evenodd" d="M0.00781803 3.57209C0.00429536 1.70788 1.68392 0.291881 3.52068 0.610583L187 32.4465C187.339 32.5054 187.686 32.5054 188.026 32.4465L371.51 0.609416C373.344 0.291106 375.023 1.70332 375.023 3.56522L375.025 278.499L375.044 285.894C375.044 285.9 375.04 285.904 375.034 285.905V285.905C375.029 285.906 375.025 285.911 375.025 285.917V460.579C375.025 462.236 373.681 463.579 372.025 463.579L3.04076 463.58C1.37757 463.58 0.0318152 462.227 0.0408005 460.564L0.986165 285.578C0.986876 285.446 0.89247 285.334 0.762936 285.311V285.311C0.634132 285.289 0.53995 285.177 0.539703 285.047L0.00781803 3.57209Z" fill="#78BEFF"/>
</svg>
