<svg width="375" height="464" viewBox="0 0 375 464" fill="none" xmlns="http://www.w3.org/2000/svg">
<path fill-rule="evenodd" clip-rule="evenodd" d="M5.53119e-06 3.00763C-0.00351714 1.14343 1.67611 -0.272571 3.51287 0.0461302L186.992 31.8821C187.331 31.941 187.678 31.941 188.018 31.8821L371.502 0.0449628C373.336 -0.273348 375.015 1.13888 375.015 3.00078L375.017 277.935L375.036 285.329C375.036 285.335 375.032 285.34 375.026 285.341V285.341C375.021 285.342 375.017 285.347 375.017 285.353V460.015C375.017 461.672 373.674 463.015 372.017 463.015L3.03295 463.016C1.36976 463.016 0.0240027 461.663 0.032988 460L0.978353 285.013C0.979063 284.882 0.884657 284.769 0.755124 284.747V284.747C0.62632 284.725 0.532138 284.613 0.531891 284.482L5.53119e-06 3.00763Z" transform="translate(0.0078125 0.564453)" fill="#78BEFF"/>
</svg>
