<?xml version="1.0" encoding="UTF-8"?>
<svg width="799px" height="224px" viewBox="0 0 799 224" version="1.1" xmlns="http://www.w3.org/2000/svg" xmlns:xlink="http://www.w3.org/1999/xlink">
    <!-- Generator: Sketch 63.1 (92452) - https://sketch.com -->
    <title>Group 16 Copy</title>
    <desc>Created with Sketch.</desc>
    <g id="Page-1" stroke="none" stroke-width="1" fill="none" fill-rule="evenodd">
        <g id="Group-16-Copy" transform="translate(2.000000, 4.000000)">
            <g id="Group-15">
                <g id="Group-13" transform="translate(470.000000, 0.000000)">
                    <text id="Fifa-addict" font-family="Raleway-ExtraBold, Raleway" font-size="32" font-weight="600" fill="#FFFFFF">
                        <tspan x="159" y="56">Fifa addict</tspan>
                    </text>
                    <g id="Group-9">
                        <path d="M77.25,31.5 L77.2506621,31.5908085 C86.9327924,32.5332663 94.5,40.6954252 94.5,50.625 C94.5,61.1874458 85.9374458,69.75 75.375,69.75 C66.7705229,69.75 59.4932156,64.0677112 57.0908851,56.2509409 L35.6137063,56.2508207 C33.021757,63.2563009 26.281549,68.25 18.375,68.25 C8.22676772,68.25 0,60.0232323 0,49.875 C0,40.3596211 7.23270257,32.5335305 16.5003859,31.5944498 L16.5,31.5 L77.25,31.5 Z" id="Combined-Shape" fill="#FFFFFF"></path>
                        <g id="Group-8" transform="translate(65.000000, 39.750000)" stroke="#000000" stroke-width="1.5">
                            <circle id="Oval" cx="11.125" cy="2.625" r="2.625"></circle>
                            <circle id="Oval-Copy-3" cx="11.125" cy="17.625" r="2.625"></circle>
                            <g id="Group-7" transform="translate(10.750000, 10.500000) rotate(-270.000000) translate(-10.750000, -10.500000) translate(7.750000, 0.000000)">
                                <circle id="Oval" cx="2.625" cy="2.625" r="2.625"></circle>
                                <circle id="Oval-Copy-3" cx="2.625" cy="17.625" r="2.625"></circle>
                            </g>
                        </g>
                        <path d="M18.75,39.75 C19.9926407,39.75 21,40.7573593 21,42 L21,47.625 L26.625,47.625 C27.8676407,47.625 28.875,48.6323593 28.875,49.875 C28.875,51.1176407 27.8676407,52.125 26.625,52.125 L21,52.125 L21,57.75 C21,58.9926407 19.9926407,60 18.75,60 C17.5073593,60 16.5,58.9926407 16.5,57.75 L16.5,52.124 L10.875,52.125 C9.63235931,52.125 8.625,51.1176407 8.625,49.875 C8.625,48.6323593 9.63235931,47.625 10.875,47.625 L16.5,47.624 L16.5,42 C16.5,40.7573593 17.5073593,39.75 18.75,39.75 Z" id="Combined-Shape" fill="#000000"></path>
                        <path d="M46.9540638,31.5 C43.4624389,18.34 48.8938554,11.2 63.2483133,10.08 C77.6027712,8.96 84.0040836,5.6 82.4522503,0" id="Path-8" stroke="#FFFFFF" stroke-width="2.25"></path>
                    </g>
                </g>
                <g id="Group-10" transform="translate(0.000000, 154.000000)">
                    <text id="Foodie" font-family="Raleway-ExtraBold, Raleway" font-size="32" font-weight="600" fill="#FFFFFF">
                        <tspan x="170" y="46">Foodie</tspan>
                    </text>
                    <g id="Group-11" transform="translate(61.000000, 34.000000) rotate(-360.000000) translate(-61.000000, -34.000000) " stroke="#FFFFFF" stroke-width="5">
                        <path d="M16,37 C21.1597014,38.3895564 25.0911109,39.0843346 27.7942286,39.0843346 C30.4973463,39.0843346 35.0834564,38.463472 41.5525589,37.221747 L40.9466925,51.1593302 C40.6588781,57.7803234 35.2073729,63 28.580127,63 C21.9815261,63 16.5811862,57.7488087 16.396428,51.1527949 L16,37 L16,37 Z" id="Rectangle" transform="translate(28.776279, 50.000000) rotate(-330.000000) translate(-28.776279, -50.000000) "></path>
                        <path d="M12,16 C24.6666667,36.6666667 40.6666667,47 60,47 C79.3333333,47 95.3333333,36.6666667 108,16" id="Path-11"></path>
                        <path d="M0,15 C4.66666667,17.6666667 8.66666667,18 12,16 C15.3333333,14 17.6666667,10.3333333 19,5" id="Path-12"></path>
                        <path d="M100.032287,12.9717432 C104.274928,16.2715749 108.281866,17.4500862 112.053102,16.5072771 C115.824339,15.5644681 118.888468,12.0289342 121.245491,5.90067541" id="Path-12-Copy" transform="translate(110.638889, 11.361111) rotate(-315.000000) translate(-110.638889, -11.361111) "></path>
                        <line x1="28" y1="50" x2="33" y2="42" id="Path-13"></line>
                    </g>
                </g>
                <g id="Group-12" transform="translate(472.000000, 144.000000)" fill="#FFFFFF">
                    <text id="Bibliophile" font-family="Raleway-ExtraBold, Raleway" font-size="32" font-weight="600">
                        <tspan x="157" y="45">Bibliophile</tspan>
                    </text>
                    <path d="M82,9 L80.9944259,4.5 L55.3522854,0.5 C52.0003716,-0.166666667 48.9836492,-0.166666667 46.3021182,0.5 C43.6205871,1.16666667 32.2240803,3.5 12.1125975,7.5 C5.40876997,7.5 1.72166481,10 1.05128205,15 C0.380899294,20 1.55406912,23.3333333 4.57079153,25 C1.8892605,25.6666667 0.380899294,27.8333333 0.0457079153,31.5 C-0.289483463,35.1666667 1.21887774,38.3333333 4.57079153,41 C1.8892605,43.3333333 0.548494983,45.6666667 0.548494983,48 C0.548494983,51.5 3.56521739,56 4.57079153,56.5 C5.24117428,56.8333333 14.4589372,59.8333333 32.2240803,65.5 C33.5648458,66.1666667 35.9111854,66.1666667 39.2630992,65.5 C42.615013,64.8333333 56.1902638,61.8333333 79.9888517,56.5 L78.9832776,51 L38.2575251,60.5 C36.5815682,61.1666667 34.5704199,61.1666667 32.2240803,60.5 C29.8777406,59.8333333 21.8331475,57.1666667 8.090301,52.5 C6.07915273,50.8333333 5.40876997,49.1666667 6.07915273,47.5 C7.08472687,45 8.090301,43 10.6042363,43.5 C12.2801932,43.8333333 19.3192122,46 31.7212932,50 C33.7324415,50.3333333 35.7435897,50.3333333 37.754738,50 C39.7658863,49.6666667 53.8439242,46.5 79.9888517,40.5 L78.9832776,35.5 L38.2575251,45 C35.9111854,45.3333333 33.9000372,45.3333333 32.2240803,45 C30.5481234,44.6666667 22.671126,42 8.59308807,37 C6.24674842,35.6666667 5.40876997,34 6.07915273,32 C7.08472687,29 9.09587514,27.5 11.1070234,28 C12.4477889,28.3333333 19.4868079,30.6666667 32.2240803,35 C34.2352285,35 36.2463768,34.8333333 38.2575251,34.5 C40.2686734,34.1666667 54.3467113,31 80.4916388,25 L78.9832776,20 L38.7603122,29 C36.4139725,29.6666667 34.5704199,29.8333333 33.2296544,29.5 C31.8888889,29.1666667 23.6767001,26.6666667 8.59308807,22 C6.24674842,20.3333333 5.40876997,18.3333333 6.07915273,16 C7.08472687,12.5 10.1014493,12 11.6098105,12.5 C12.6153846,12.8333333 18.3136381,14.6666667 28.7045708,18 C33.3972501,18.6666667 37.2519509,18.6666667 40.2686734,18 C43.2853958,17.3333333 57.195838,14.3333333 82,9 Z" id="Path-9"></path>
                </g>
                <g id="Group-14" transform="translate(23.000000, 0.000000)">
                    <g id="Group-6" stroke="#FFFFFF" stroke-width="4.5">
                        <g id="Group-5">
                            <polyline id="Path-6" points="22.5 73.125 22.5 65.25 22.5 16.875 74.25 0 74.25 51.75"></polyline>
                            <polygon id="Path-7" points="22.5 36 74.25 19.125 74.25 0 22.5 16.875"></polygon>
                            <circle id="Oval" fill="#FFFFFF" cx="12.375" cy="73.125" r="10.125"></circle>
                            <circle id="Oval-Copy" fill="#FFFFFF" cx="64.125" cy="52.875" r="10.125"></circle>
                        </g>
                    </g>
                    <text id="Musicophile" font-family="Raleway-ExtraBold, Raleway" font-size="32" font-weight="600" fill="#FFFFFF">
                        <tspan x="147" y="51">Musicophile</tspan>
                    </text>
                </g>
            </g>
        </g>
    </g>
</svg>