<?xml version="1.0" encoding="UTF-8"?>
<svg width="226px" height="30px" viewBox="0 0 226 30" version="1.1" xmlns="http://www.w3.org/2000/svg" xmlns:xlink="http://www.w3.org/1999/xlink">
    <title>Group 2 Copy</title>
    <g id="Page-1" stroke="none" stroke-width="1" fill="none" fill-rule="evenodd">
        <g id="Group-2-Copy">
            <path d="M52.568,24 L52.568,18.984 L54.344,17.136 L59.168,24 L63.656,24 L56.84,14.568 L63.224,6.96 L58.808,6.96 L52.568,14.304 L52.568,6.96 L48.632,6.96 L48.632,24 L52.568,24 Z M72.248,24.144 C73.56,24.144 74.692,23.924 75.644,23.484 C76.596,23.044 77.38,22.44 77.996,21.672 C78.612,20.904 79.068,20.008 79.364,18.984 C79.66,17.96 79.808,16.856 79.808,15.672 L79.808,15.672 L79.808,6.96 L75.872,6.96 L75.872,15.672 C75.872,16.296 75.812,16.908 75.692,17.508 C75.572,18.108 75.368,18.64 75.08,19.104 C74.792,19.568 74.416,19.94 73.952,20.22 C73.488,20.5 72.92,20.64 72.248,20.64 C71.576,20.64 71.012,20.504 70.556,20.232 C70.1,19.96 69.728,19.592 69.44,19.128 C69.152,18.664 68.944,18.136 68.816,17.544 C68.688,16.952 68.624,16.328 68.624,15.672 L68.624,15.672 L68.624,6.96 L64.688,6.96 L64.688,15.672 C64.688,16.792 64.828,17.864 65.108,18.888 C65.388,19.912 65.828,20.812 66.428,21.588 C67.028,22.364 67.808,22.984 68.768,23.448 C69.728,23.912 70.888,24.144 72.248,24.144 Z M86.792,24 L86.792,14.256 L94.64,24 L97.808,24 L97.808,6.96 L93.872,6.96 L93.872,16.968 L85.928,6.96 L82.856,6.96 L82.856,24 L86.792,24 Z M103.52,24 L104.816,20.184 L110.12,20.184 L111.44,24 L115.472,24 L109.256,6.96 L105.704,6.96 L99.488,24 L103.52,24 Z M109.472,17.472 L105.44,17.472 L107.48,11.448 L109.472,17.472 Z M129.344,24 L129.344,20.544 L121.088,20.544 L121.088,6.96 L117.152,6.96 L117.152,24 L129.344,24 Z M142.856,24.192 C143.672,24.192 144.464,24.1 145.232,23.916 C146,23.732 146.68,23.436 147.272,23.028 C147.864,22.62 148.34,22.084 148.7,21.42 C149.06,20.756 149.24,19.944 149.24,18.984 C149.24,18.2 149.116,17.528 148.868,16.968 C148.62,16.408 148.268,15.932 147.812,15.54 C147.356,15.148 146.8,14.82 146.144,14.556 C145.488,14.292 144.752,14.048 143.936,13.824 C143.344,13.664 142.824,13.52 142.376,13.392 C141.928,13.264 141.556,13.124 141.26,12.972 C140.964,12.82 140.74,12.648 140.588,12.456 C140.436,12.264 140.36,12.024 140.36,11.736 C140.36,10.792 141.064,10.32 142.472,10.32 C142.984,10.32 143.496,10.392 144.008,10.536 C144.52,10.68 144.992,10.848 145.424,11.04 C145.856,11.232 146.216,11.416 146.504,11.592 C146.792,11.768 146.96,11.888 147.008,11.952 L147.008,11.952 L148.736,8.688 C148.352,8.464 147.932,8.24 147.476,8.016 C147.02,7.792 146.528,7.592 146,7.416 C145.472,7.24 144.92,7.096 144.344,6.984 C143.768,6.872 143.184,6.816 142.592,6.816 C141.744,6.816 140.94,6.936 140.18,7.176 C139.42,7.416 138.752,7.772 138.176,8.244 C137.6,8.716 137.144,9.296 136.808,9.984 C136.472,10.672 136.304,11.464 136.304,12.36 C136.304,13 136.396,13.56 136.58,14.04 C136.764,14.52 137.044,14.944 137.42,15.312 C137.796,15.68 138.272,16.004 138.848,16.284 C139.424,16.564 140.104,16.824 140.888,17.064 C141.48,17.24 142.028,17.4 142.532,17.544 C143.036,17.688 143.472,17.844 143.84,18.012 C144.208,18.18 144.496,18.368 144.704,18.576 C144.912,18.784 145.016,19.048 145.016,19.368 C145.016,20.216 144.32,20.64 142.928,20.64 C142.272,20.64 141.624,20.552 140.984,20.376 C140.344,20.2 139.764,20 139.244,19.776 C138.724,19.552 138.288,19.328 137.936,19.104 C137.584,18.88 137.376,18.728 137.312,18.648 L137.312,18.648 L135.584,22.08 C136.08,22.416 136.62,22.712 137.204,22.968 C137.788,23.224 138.392,23.444 139.016,23.628 C139.64,23.812 140.28,23.952 140.936,24.048 C141.592,24.144 142.232,24.192 142.856,24.192 Z M153.992,24 L155.288,20.184 L160.592,20.184 L161.912,24 L165.944,24 L159.728,6.96 L156.176,6.96 L149.96,24 L153.992,24 Z M159.944,17.472 L155.912,17.472 L157.952,11.448 L159.944,17.472 Z M175.424,24 L175.424,10.416 L180.608,10.416 L180.608,6.96 L166.28,6.96 L166.28,10.416 L171.488,10.416 L171.488,24 L175.424,24 Z M186.464,24 L186.464,18.504 L189.92,18.504 C190.736,18.504 191.48,18.344 192.152,18.024 C192.824,17.704 193.396,17.272 193.868,16.728 C194.34,16.184 194.708,15.568 194.972,14.88 C195.236,14.192 195.368,13.472 195.368,12.72 C195.368,12.016 195.228,11.32 194.948,10.632 C194.668,9.944 194.284,9.328 193.796,8.784 C193.308,8.24 192.724,7.8 192.044,7.464 C191.364,7.128 190.616,6.96 189.8,6.96 L189.8,6.96 L182.528,6.96 L182.528,24 L186.464,24 Z M189.68,15.072 L186.464,15.072 L186.464,10.416 L189.536,10.416 C189.76,10.416 189.984,10.46 190.208,10.548 C190.432,10.636 190.632,10.776 190.808,10.968 C190.984,11.16 191.124,11.4 191.228,11.688 C191.332,11.976 191.384,12.32 191.384,12.72 C191.384,13.488 191.216,14.072 190.88,14.472 C190.544,14.872 190.144,15.072 189.68,15.072 L189.68,15.072 Z M199.928,24 L201.224,20.184 L206.528,20.184 L207.848,24 L211.88,24 L205.664,6.96 L202.112,6.96 L195.896,24 L199.928,24 Z M205.88,17.472 L201.848,17.472 L203.888,11.448 L205.88,17.472 Z M225.752,24 L225.752,20.544 L217.496,20.544 L217.496,6.96 L213.56,6.96 L213.56,24 L225.752,24 Z" id="KUNALSATPAL" fill="#000000" fill-rule="nonzero"></path>
            <rect id="Rectangle" fill="#000000" x="0" y="1.091" width="7.68" height="28.356" rx="0.96"></rect>
            <path d="M31.68,0.92 C32.2101934,0.92 32.64,1.34980664 32.64,1.88 L32.64,28.28 C32.64,28.8101934 32.2101934,29.24 31.68,29.24 L25.1395569,29.24 C24.8720673,29.24 24.6167071,29.1283978 24.4350128,28.9320871 L18.2396442,22.238 L18.2396442,7.82 L24.4356144,1.22287346 C24.6170728,1.02961844 24.8703669,0.92 25.1354606,0.92 L31.68,0.92 Z" id="Combined-Shape" fill="#000000"></path>
            <path d="M17.76,9.10076976 L12.1765851,15.083 L17.76,21.0652302 L17.76,9.10076976 Z" id="Path-3" stroke="#000000" stroke-width="0.96"></path>
        </g>
    </g>
</svg>