<?xml version="1.0" encoding="UTF-8"?>
<svg width="260px" height="62px" viewBox="0 0 260 62" version="1.1" xmlns="http://www.w3.org/2000/svg" xmlns:xlink="http://www.w3.org/1999/xlink">
    <title>logo</title>
    <g id="logo" stroke="none" stroke-width="1" fill="none" fill-rule="evenodd">
        <g id="Group-2-Copy" transform="translate(10.000000, 16.000000)">
            <path d="M52.488,24.243 L52.488,19.227 L54.264,17.379 L59.088,24.243 L63.576,24.243 L56.76,14.811 L63.144,7.203 L58.728,7.203 L52.488,14.547 L52.488,7.203 L48.552,7.203 L48.552,24.243 L52.488,24.243 Z M72.168,24.387 C73.48,24.387 74.612,24.167 75.564,23.727 C76.516,23.287 77.3,22.683 77.916,21.915 C78.532,21.147 78.988,20.251 79.284,19.227 C79.58,18.203 79.728,17.099 79.728,15.915 L79.728,15.915 L79.728,7.203 L75.792,7.203 L75.792,15.915 C75.792,16.539 75.732,17.151 75.612,17.751 C75.492,18.351 75.288,18.883 75,19.347 C74.712,19.811 74.336,20.183 73.872,20.463 C73.408,20.743 72.84,20.883 72.168,20.883 C71.496,20.883 70.932,20.747 70.476,20.475 C70.02,20.203 69.648,19.835 69.36,19.371 C69.072,18.907 68.864,18.379 68.736,17.787 C68.608,17.195 68.544,16.571 68.544,15.915 L68.544,15.915 L68.544,7.203 L64.608,7.203 L64.608,15.915 C64.608,17.035 64.748,18.107 65.028,19.131 C65.308,20.155 65.748,21.055 66.348,21.831 C66.948,22.607 67.728,23.227 68.688,23.691 C69.648,24.155 70.808,24.387 72.168,24.387 Z M86.712,24.243 L86.712,14.499 L94.56,24.243 L97.728,24.243 L97.728,7.203 L93.792,7.203 L93.792,17.211 L85.848,7.203 L82.776,7.203 L82.776,24.243 L86.712,24.243 Z M103.44,24.243 L104.736,20.427 L110.04,20.427 L111.36,24.243 L115.392,24.243 L109.176,7.203 L105.624,7.203 L99.408,24.243 L103.44,24.243 Z M109.392,17.715 L105.36,17.715 L107.4,11.691 L109.392,17.715 Z M129.264,24.243 L129.264,20.787 L121.008,20.787 L121.008,7.203 L117.072,7.203 L117.072,24.243 L129.264,24.243 Z M142.776,24.435 C143.592,24.435 144.384,24.343 145.152,24.159 C145.92,23.975 146.6,23.679 147.192,23.271 C147.784,22.863 148.26,22.327 148.62,21.663 C148.98,20.999 149.16,20.187 149.16,19.227 C149.16,18.443 149.036,17.771 148.788,17.211 C148.54,16.651 148.188,16.175 147.732,15.783 C147.276,15.391 146.72,15.063 146.064,14.799 C145.408,14.535 144.672,14.291 143.856,14.067 C143.264,13.907 142.744,13.763 142.296,13.635 C141.848,13.507 141.476,13.367 141.18,13.215 C140.884,13.063 140.66,12.891 140.508,12.699 C140.356,12.507 140.28,12.267 140.28,11.979 C140.28,11.035 140.984,10.563 142.392,10.563 C142.904,10.563 143.416,10.635 143.928,10.779 C144.44,10.923 144.912,11.091 145.344,11.283 C145.776,11.475 146.136,11.659 146.424,11.835 C146.712,12.011 146.88,12.131 146.928,12.195 L146.928,12.195 L148.656,8.931 C148.272,8.707 147.852,8.483 147.396,8.259 C146.94,8.035 146.448,7.835 145.92,7.659 C145.392,7.483 144.84,7.339 144.264,7.227 C143.688,7.115 143.104,7.059 142.512,7.059 C141.664,7.059 140.86,7.179 140.1,7.419 C139.34,7.659 138.672,8.015 138.096,8.487 C137.52,8.959 137.064,9.539 136.728,10.227 C136.392,10.915 136.224,11.707 136.224,12.603 C136.224,13.243 136.316,13.803 136.5,14.283 C136.684,14.763 136.964,15.187 137.34,15.555 C137.716,15.923 138.192,16.247 138.768,16.527 C139.344,16.807 140.024,17.067 140.808,17.307 C141.4,17.483 141.948,17.643 142.452,17.787 C142.956,17.931 143.392,18.087 143.76,18.255 C144.128,18.423 144.416,18.611 144.624,18.819 C144.832,19.027 144.936,19.291 144.936,19.611 C144.936,20.459 144.24,20.883 142.848,20.883 C142.192,20.883 141.544,20.795 140.904,20.619 C140.264,20.443 139.684,20.243 139.164,20.019 C138.644,19.795 138.208,19.571 137.856,19.347 C137.504,19.123 137.296,18.971 137.232,18.891 L137.232,18.891 L135.504,22.323 C136,22.659 136.54,22.955 137.124,23.211 C137.708,23.467 138.312,23.687 138.936,23.871 C139.56,24.055 140.2,24.195 140.856,24.291 C141.512,24.387 142.152,24.435 142.776,24.435 Z M153.912,24.243 L155.208,20.427 L160.512,20.427 L161.832,24.243 L165.864,24.243 L159.648,7.203 L156.096,7.203 L149.88,24.243 L153.912,24.243 Z M159.864,17.715 L155.832,17.715 L157.872,11.691 L159.864,17.715 Z M175.344,24.243 L175.344,10.659 L180.528,10.659 L180.528,7.203 L166.2,7.203 L166.2,10.659 L171.408,10.659 L171.408,24.243 L175.344,24.243 Z M186.384,24.243 L186.384,18.747 L189.84,18.747 C190.656,18.747 191.4,18.587 192.072,18.267 C192.744,17.947 193.316,17.515 193.788,16.971 C194.26,16.427 194.628,15.811 194.892,15.123 C195.156,14.435 195.288,13.715 195.288,12.963 C195.288,12.259 195.148,11.563 194.868,10.875 C194.588,10.187 194.204,9.571 193.716,9.027 C193.228,8.483 192.644,8.043 191.964,7.707 C191.284,7.371 190.536,7.203 189.72,7.203 L189.72,7.203 L182.448,7.203 L182.448,24.243 L186.384,24.243 Z M189.6,15.315 L186.384,15.315 L186.384,10.659 L189.456,10.659 C189.68,10.659 189.904,10.703 190.128,10.791 C190.352,10.879 190.552,11.019 190.728,11.211 C190.904,11.403 191.044,11.643 191.148,11.931 C191.252,12.219 191.304,12.563 191.304,12.963 C191.304,13.731 191.136,14.315 190.8,14.715 C190.464,15.115 190.064,15.315 189.6,15.315 L189.6,15.315 Z M199.848,24.243 L201.144,20.427 L206.448,20.427 L207.768,24.243 L211.8,24.243 L205.584,7.203 L202.032,7.203 L195.816,24.243 L199.848,24.243 Z M205.8,17.715 L201.768,17.715 L203.808,11.691 L205.8,17.715 Z M225.672,24.243 L225.672,20.787 L217.416,20.787 L217.416,7.203 L213.48,7.203 L213.48,24.243 L225.672,24.243 Z" id="KUNALSATPAL" fill="#000000" fill-rule="nonzero"></path>
            <rect id="Rectangle" fill="#000000" x="0" y="1.091" width="7.68" height="28.356" rx="0.96"></rect>
            <path d="M31.68,0.92 C32.2101934,0.92 32.64,1.34980664 32.64,1.88 L32.64,28.28 C32.64,28.8101934 32.2101934,29.24 31.68,29.24 L25.1395569,29.24 C24.8720673,29.24 24.6167071,29.1283978 24.4350128,28.9320871 L18.2396442,22.238 L18.2396442,7.82 L24.4356144,1.22287346 C24.6170728,1.02961844 24.8703669,0.92 25.1354606,0.92 L31.68,0.92 Z" id="Combined-Shape" fill="#000000"></path>
            <path d="M17.76,9.10076976 L12.1765851,15.083 L17.76,21.0652302 L17.76,9.10076976 Z" id="Path-3" stroke="#000000" stroke-width="0.96"></path>
        </g>
    </g>
</svg>