<svg width="316" height="179" viewBox="0 0 316 179" fill="none" xmlns="http://www.w3.org/2000/svg">
<rect width="316" height="179" fill="black" fill-opacity="0"/>
<circle cx="158.5" cy="51.5" r="51.5" fill="#78BEFF"/>
<circle cx="140.5" cy="39.5" r="6.5" fill="white"/>
<circle cx="176.5" cy="39.5" r="6.5" fill="white"/>
<path d="M176 69C176 79.1108 168.165 83 158.5 83C148.835 83 141 79.1108 141 69C141 69 149.521 70.0772 159.186 70.0772C168.851 70.0772 176 69 176 69Z" fill="white"/>
<path d="M11.6875 169H6.84375V150.188H0.640625V146.156H17.8906V150.188H11.6875V169ZM37.1562 169H32.3906V158.797C32.3906 156.276 31.4531 155.016 29.5781 155.016C28.2448 155.016 27.2812 155.469 26.6875 156.375C26.0938 157.281 25.7969 158.75 25.7969 160.781V169H21.0312V144.688H25.7969V149.641C25.7969 150.026 25.7604 150.932 25.6875 152.359L25.5781 153.766H25.8281C26.8906 152.057 28.5781 151.203 30.8906 151.203C32.9427 151.203 34.5 151.755 35.5625 152.859C36.625 153.964 37.1562 155.547 37.1562 157.609V169ZM53.1562 169L52.2344 166.625H52.1094C51.3073 167.635 50.4792 168.339 49.625 168.734C48.7812 169.12 47.6771 169.312 46.3125 169.312C44.6354 169.312 43.3125 168.833 42.3438 167.875C41.3854 166.917 40.9062 165.552 40.9062 163.781C40.9062 161.927 41.5521 160.562 42.8438 159.688C44.1458 158.802 46.1042 158.312 48.7188 158.219L51.75 158.125V157.359C51.75 155.589 50.8438 154.703 49.0312 154.703C47.6354 154.703 45.9948 155.125 44.1094 155.969L42.5312 152.75C44.5417 151.698 46.7708 151.172 49.2188 151.172C51.5625 151.172 53.3594 151.682 54.6094 152.703C55.8594 153.724 56.4844 155.276 56.4844 157.359V169H53.1562ZM51.75 160.906L49.9062 160.969C48.5208 161.01 47.4896 161.26 46.8125 161.719C46.1354 162.177 45.7969 162.875 45.7969 163.812C45.7969 165.156 46.5677 165.828 48.1094 165.828C49.2135 165.828 50.0938 165.51 50.75 164.875C51.4167 164.24 51.75 163.396 51.75 162.344V160.906ZM77.5312 169H72.7656V158.797C72.7656 157.536 72.5417 156.594 72.0938 155.969C71.6458 155.333 70.9323 155.016 69.9531 155.016C68.6198 155.016 67.6562 155.464 67.0625 156.359C66.4688 157.245 66.1719 158.719 66.1719 160.781V169H61.4062V151.531H65.0469L65.6875 153.766H65.9531C66.4844 152.922 67.2135 152.286 68.1406 151.859C69.0781 151.422 70.1406 151.203 71.3281 151.203C73.3594 151.203 74.901 151.755 75.9531 152.859C77.0052 153.953 77.5312 155.536 77.5312 157.609V169ZM87.0156 159.5L89.0938 156.844L93.9844 151.531H99.3594L92.4219 159.109L99.7812 169H94.2812L89.25 161.922L87.2031 163.562V169H82.4375V144.688H87.2031V155.531L86.9531 159.5H87.0156ZM114.469 163.812C114.469 165.604 113.844 166.969 112.594 167.906C111.354 168.844 109.495 169.312 107.016 169.312C105.745 169.312 104.661 169.224 103.766 169.047C102.87 168.88 102.031 168.63 101.25 168.297V164.359C102.135 164.776 103.13 165.125 104.234 165.406C105.349 165.688 106.328 165.828 107.172 165.828C108.901 165.828 109.766 165.328 109.766 164.328C109.766 163.953 109.651 163.651 109.422 163.422C109.193 163.182 108.797 162.917 108.234 162.625C107.672 162.323 106.922 161.974 105.984 161.578C104.641 161.016 103.651 160.495 103.016 160.016C102.391 159.536 101.932 158.99 101.641 158.375C101.359 157.75 101.219 156.984 101.219 156.078C101.219 154.526 101.818 153.328 103.016 152.484C104.224 151.63 105.932 151.203 108.141 151.203C110.245 151.203 112.292 151.661 114.281 152.578L112.844 156.016C111.969 155.641 111.151 155.333 110.391 155.094C109.63 154.854 108.854 154.734 108.062 154.734C106.656 154.734 105.953 155.115 105.953 155.875C105.953 156.302 106.177 156.672 106.625 156.984C107.083 157.297 108.078 157.76 109.609 158.375C110.974 158.927 111.974 159.443 112.609 159.922C113.245 160.401 113.714 160.953 114.016 161.578C114.318 162.203 114.469 162.948 114.469 163.812ZM136.156 155.109H132.031V169H127.266V155.109H124.641V152.812L127.266 151.531V150.25C127.266 148.26 127.755 146.807 128.734 145.891C129.714 144.974 131.281 144.516 133.438 144.516C135.083 144.516 136.547 144.76 137.828 145.25L136.609 148.75C135.651 148.448 134.766 148.297 133.953 148.297C133.276 148.297 132.786 148.5 132.484 148.906C132.182 149.302 132.031 149.812 132.031 150.438V151.531H136.156V155.109ZM142.703 160.234C142.703 161.964 142.984 163.271 143.547 164.156C144.12 165.042 145.047 165.484 146.328 165.484C147.599 165.484 148.51 165.047 149.062 164.172C149.625 163.286 149.906 161.974 149.906 160.234C149.906 158.505 149.625 157.208 149.062 156.344C148.5 155.479 147.578 155.047 146.297 155.047C145.026 155.047 144.109 155.479 143.547 156.344C142.984 157.198 142.703 158.495 142.703 160.234ZM154.781 160.234C154.781 163.078 154.031 165.302 152.531 166.906C151.031 168.51 148.943 169.312 146.266 169.312C144.589 169.312 143.109 168.948 141.828 168.219C140.547 167.479 139.562 166.422 138.875 165.047C138.188 163.672 137.844 162.068 137.844 160.234C137.844 157.38 138.589 155.161 140.078 153.578C141.568 151.995 143.661 151.203 146.359 151.203C148.036 151.203 149.516 151.568 150.797 152.297C152.078 153.026 153.062 154.073 153.75 155.438C154.438 156.802 154.781 158.401 154.781 160.234ZM168.469 151.203C169.115 151.203 169.651 151.25 170.078 151.344L169.719 155.812C169.333 155.708 168.865 155.656 168.312 155.656C166.792 155.656 165.604 156.047 164.75 156.828C163.906 157.609 163.484 158.703 163.484 160.109V169H158.719V151.531H162.328L163.031 154.469H163.266C163.807 153.49 164.536 152.703 165.453 152.109C166.38 151.505 167.385 151.203 168.469 151.203ZM191.312 151.203C191.958 151.203 192.495 151.25 192.922 151.344L192.562 155.812C192.177 155.708 191.708 155.656 191.156 155.656C189.635 155.656 188.448 156.047 187.594 156.828C186.75 157.609 186.328 158.703 186.328 160.109V169H181.562V151.531H185.172L185.875 154.469H186.109C186.651 153.49 187.38 152.703 188.297 152.109C189.224 151.505 190.229 151.203 191.312 151.203ZM203.016 154.594C202.005 154.594 201.214 154.917 200.641 155.562C200.068 156.198 199.74 157.104 199.656 158.281H206.344C206.323 157.104 206.016 156.198 205.422 155.562C204.828 154.917 204.026 154.594 203.016 154.594ZM203.688 169.312C200.875 169.312 198.677 168.536 197.094 166.984C195.51 165.432 194.719 163.234 194.719 160.391C194.719 157.464 195.448 155.203 196.906 153.609C198.375 152.005 200.401 151.203 202.984 151.203C205.453 151.203 207.375 151.906 208.75 153.312C210.125 154.719 210.812 156.661 210.812 159.141V161.453H199.547C199.599 162.807 200 163.865 200.75 164.625C201.5 165.385 202.552 165.766 203.906 165.766C204.958 165.766 205.953 165.656 206.891 165.438C207.828 165.219 208.807 164.87 209.828 164.391V168.078C208.995 168.495 208.104 168.802 207.156 169C206.208 169.208 205.052 169.312 203.688 169.312ZM225.781 169L224.859 166.625H224.734C223.932 167.635 223.104 168.339 222.25 168.734C221.406 169.12 220.302 169.312 218.938 169.312C217.26 169.312 215.938 168.833 214.969 167.875C214.01 166.917 213.531 165.552 213.531 163.781C213.531 161.927 214.177 160.562 215.469 159.688C216.771 158.802 218.729 158.312 221.344 158.219L224.375 158.125V157.359C224.375 155.589 223.469 154.703 221.656 154.703C220.26 154.703 218.62 155.125 216.734 155.969L215.156 152.75C217.167 151.698 219.396 151.172 221.844 151.172C224.188 151.172 225.984 151.682 227.234 152.703C228.484 153.724 229.109 155.276 229.109 157.359V169H225.781ZM224.375 160.906L222.531 160.969C221.146 161.01 220.115 161.26 219.438 161.719C218.76 162.177 218.422 162.875 218.422 163.812C218.422 165.156 219.193 165.828 220.734 165.828C221.839 165.828 222.719 165.51 223.375 164.875C224.042 164.24 224.375 163.396 224.375 162.344V160.906ZM239.562 169.312C237.51 169.312 235.896 168.516 234.719 166.922C233.552 165.328 232.969 163.12 232.969 160.297C232.969 157.432 233.562 155.203 234.75 153.609C235.948 152.005 237.594 151.203 239.688 151.203C241.885 151.203 243.562 152.057 244.719 153.766H244.875C244.635 152.464 244.516 151.302 244.516 150.281V144.688H249.297V169H245.641L244.719 166.734H244.516C243.432 168.453 241.781 169.312 239.562 169.312ZM241.234 165.516C242.453 165.516 243.344 165.161 243.906 164.453C244.479 163.745 244.792 162.542 244.844 160.844V160.328C244.844 158.453 244.552 157.109 243.969 156.297C243.396 155.484 242.458 155.078 241.156 155.078C240.094 155.078 239.266 155.531 238.672 156.438C238.089 157.333 237.797 158.641 237.797 160.359C237.797 162.078 238.094 163.37 238.688 164.234C239.281 165.089 240.13 165.516 241.234 165.516ZM254.078 147.016C254.078 145.464 254.943 144.688 256.672 144.688C258.401 144.688 259.266 145.464 259.266 147.016C259.266 147.755 259.047 148.333 258.609 148.75C258.182 149.156 257.536 149.359 256.672 149.359C254.943 149.359 254.078 148.578 254.078 147.016ZM259.047 169H254.281V151.531H259.047V169ZM280.188 169H275.422V158.797C275.422 157.536 275.198 156.594 274.75 155.969C274.302 155.333 273.589 155.016 272.609 155.016C271.276 155.016 270.312 155.464 269.719 156.359C269.125 157.245 268.828 158.719 268.828 160.781V169H264.062V151.531H267.703L268.344 153.766H268.609C269.141 152.922 269.87 152.286 270.797 151.859C271.734 151.422 272.797 151.203 273.984 151.203C276.016 151.203 277.557 151.755 278.609 152.859C279.661 153.953 280.188 155.536 280.188 157.609V169ZM292.328 165.578C293.609 165.578 294.526 165.214 295.078 164.484C295.63 163.745 295.906 162.552 295.906 160.906V160.328C295.906 158.464 295.615 157.125 295.031 156.312C294.458 155.49 293.531 155.078 292.25 155.078C290.01 155.078 288.891 156.839 288.891 160.359C288.891 162.109 289.167 163.417 289.719 164.281C290.281 165.146 291.151 165.578 292.328 165.578ZM300.359 169.031C300.359 171.542 299.625 173.443 298.156 174.734C296.698 176.036 294.521 176.688 291.625 176.688C289.073 176.688 286.896 176.344 285.094 175.656V171.844C287.208 172.74 289.479 173.188 291.906 173.188C294.354 173.188 295.578 171.865 295.578 169.219V168.875L295.719 166.734H295.578C294.464 168.453 292.812 169.312 290.625 169.312C288.531 169.312 286.906 168.505 285.75 166.891C284.604 165.276 284.031 163.078 284.031 160.297C284.031 157.432 284.625 155.203 285.812 153.609C287.01 152.005 288.656 151.203 290.75 151.203C292.896 151.203 294.583 152.057 295.812 153.766H295.938L296.328 151.531H300.359V169.031ZM311.75 161.422H307.938L307.141 146.156H312.547L311.75 161.422ZM307.078 166.766C307.078 166.276 307.146 165.865 307.281 165.531C307.427 165.188 307.625 164.911 307.875 164.703C308.125 164.495 308.417 164.344 308.75 164.25C309.083 164.156 309.443 164.109 309.828 164.109C310.193 164.109 310.536 164.156 310.859 164.25C311.193 164.344 311.484 164.495 311.734 164.703C311.984 164.911 312.182 165.188 312.328 165.531C312.474 165.865 312.547 166.276 312.547 166.766C312.547 167.234 312.474 167.635 312.328 167.969C312.182 168.302 311.984 168.578 311.734 168.797C311.484 169.016 311.193 169.172 310.859 169.266C310.536 169.37 310.193 169.422 309.828 169.422C309.443 169.422 309.083 169.37 308.75 169.266C308.417 169.172 308.125 169.016 307.875 168.797C307.625 168.578 307.427 168.302 307.281 167.969C307.146 167.635 307.078 167.234 307.078 166.766Z" fill="#78BEFF"/>
</svg>
